<?xml version="1.0" encoding="utf-8"?>
<!-- Generator: Adobe Illustrator 23.0.1, SVG Export Plug-In . SVG Version: 6.00 Build 0)  -->
<svg version="1.1" id="Layer_2" xmlns="http://www.w3.org/2000/svg" xmlns:xlink="http://www.w3.org/1999/xlink" x="0px" y="0px"
	 width="166.37px" height="96.39px" viewBox="0 0 166.37 96.39" enable-background="new 0 0 166.37 96.39" xml:space="preserve">
<g>
	<path fill="#93278F" d="M151.57,61.39v1c0.16,0,0.31,0,0.47,0.01c2.13,0.12,4.09,1.07,5.51,2.67c1.42,1.6,2.14,3.65,2.01,5.78
		c-0.24,4.23-3.75,7.54-7.98,7.54c-0.16,0-0.31,0-0.47-0.01c-2.13-0.12-4.09-1.07-5.51-2.67c-1.42-1.6-2.14-3.65-2.01-5.78
		c0.24-4.23,3.75-7.54,7.98-7.54V61.39 M151.57,61.39c-4.73,0-8.7,3.7-8.98,8.48c-0.29,4.96,3.5,9.22,8.47,9.5
		c0.18,0.01,0.35,0.02,0.53,0.02c4.73,0,8.7-3.7,8.98-8.48c0.29-4.96-3.5-9.22-8.47-9.5C151.92,61.39,151.74,61.39,151.57,61.39
		L151.57,61.39z"/>
</g>
<g>
	<path fill="#FBB03B" d="M59.57,59.39v1c0.16,0,0.31,0,0.47,0.01c2.13,0.12,4.09,1.07,5.51,2.67c1.42,1.6,2.14,3.65,2.01,5.78
		c-0.24,4.23-3.75,7.54-7.98,7.54c-0.16,0-0.31,0-0.47-0.01c-2.13-0.12-4.09-1.07-5.51-2.67c-1.42-1.6-2.14-3.65-2.01-5.78
		c0.24-4.23,3.75-7.54,7.98-7.54V59.39 M59.57,59.39c-4.73,0-8.7,3.7-8.98,8.48c-0.29,4.96,3.5,9.22,8.47,9.5
		c0.18,0.01,0.35,0.02,0.53,0.02c4.73,0,8.7-3.7,8.98-8.48c0.29-4.96-3.5-9.22-8.47-9.5C59.92,59.39,59.74,59.39,59.57,59.39
		L59.57,59.39z"/>
</g>
<circle opacity="0.9" fill="#F7931E" cx="13.58" cy="68.39" r="9"/>
<circle opacity="0.9" fill="#662D91" cx="104.58" cy="68.39" r="9"/>
<g>
	<path fill="#46416B" d="M3.93,83.77h5.16v0.94H7.04v6.65h2.04v0.94H3.93v-0.94h2v-6.65h-2V83.77z"/>
	<path fill="#46416B" d="M16.17,92.3h-1.1l-3.31-6.38l-0.02,6.38h-1.1v-8.53h1.1l3.31,6.36l0.02-6.36h1.1V92.3z"/>
	<path fill="#46416B" d="M23.59,89.73c-0.05,0.39-0.15,0.76-0.3,1.09s-0.35,0.61-0.59,0.85s-0.53,0.42-0.87,0.55s-0.71,0.2-1.12,0.2
		c-0.35,0-0.67-0.05-0.96-0.15s-0.54-0.24-0.77-0.41s-0.42-0.38-0.58-0.62s-0.3-0.5-0.4-0.78s-0.19-0.58-0.24-0.88
		s-0.08-0.62-0.08-0.94v-1.19c0-0.32,0.03-0.63,0.08-0.94s0.13-0.6,0.24-0.88s0.24-0.54,0.4-0.78s0.36-0.45,0.58-0.62
		s0.48-0.31,0.76-0.41s0.61-0.15,0.96-0.15c0.43,0,0.81,0.07,1.14,0.2s0.62,0.32,0.87,0.56s0.44,0.53,0.58,0.86s0.24,0.71,0.29,1.11
		h-1.08c-0.04-0.26-0.1-0.5-0.18-0.72s-0.2-0.42-0.35-0.59s-0.32-0.3-0.53-0.4s-0.46-0.14-0.74-0.14c-0.26,0-0.49,0.04-0.68,0.13
		s-0.37,0.2-0.51,0.34s-0.26,0.31-0.36,0.5s-0.17,0.39-0.23,0.61s-0.1,0.43-0.13,0.66s-0.04,0.44-0.04,0.65v1.2
		c0,0.21,0.01,0.43,0.04,0.65s0.07,0.45,0.13,0.66s0.13,0.42,0.23,0.61s0.21,0.36,0.36,0.51s0.31,0.26,0.51,0.35
		s0.42,0.13,0.69,0.13c0.29,0,0.53-0.04,0.74-0.13s0.39-0.22,0.53-0.38s0.26-0.35,0.35-0.57s0.15-0.46,0.18-0.72H23.59z"/>
</g>
<g>
	<path fill="#46416B" d="M51.01,83.77l1.39,4.27l1.5-4.27h1.35v8.53h-1.05v-3.4l0.09-3.56l-1.58,4.59h-0.62l-1.45-4.47l0.09,3.44
		v3.4h-1.05v-8.53H51.01z"/>
	<path fill="#46416B" d="M59.61,88.05l1.95-4.28h1.23l-2.65,5.35l-0.02,3.18h-1.01l-0.02-3.18l-2.65-5.35h1.24L59.61,88.05z"/>
	<path fill="#46416B" d="M64.17,83.77h5.16v0.94h-2.04v6.65h2.04v0.94h-5.16v-0.94h2v-6.65h-2V83.77z"/>
</g>
<g>
	<path fill="#46416B" d="M100.36,88.53c0,0.3-0.03,0.61-0.08,0.92s-0.12,0.61-0.23,0.9s-0.23,0.56-0.39,0.81s-0.35,0.47-0.57,0.66
		s-0.47,0.33-0.75,0.44s-0.6,0.16-0.95,0.16s-0.67-0.05-0.95-0.16s-0.53-0.25-0.75-0.44s-0.41-0.41-0.57-0.66s-0.29-0.52-0.4-0.81
		s-0.18-0.59-0.23-0.9s-0.08-0.62-0.08-0.92v-0.97c0-0.3,0.03-0.61,0.08-0.92s0.12-0.61,0.23-0.9s0.23-0.56,0.39-0.81
		s0.35-0.47,0.57-0.66s0.47-0.34,0.75-0.45s0.6-0.16,0.95-0.16s0.67,0.05,0.96,0.16s0.54,0.25,0.76,0.44s0.41,0.41,0.57,0.66
		s0.29,0.52,0.39,0.81s0.18,0.59,0.23,0.9s0.08,0.62,0.08,0.93V88.53z M99.29,87.54c0-0.2-0.02-0.42-0.04-0.64s-0.06-0.44-0.12-0.66
		S99,85.82,98.9,85.63s-0.21-0.37-0.35-0.52s-0.31-0.27-0.5-0.36s-0.41-0.13-0.67-0.13c-0.25,0-0.47,0.04-0.66,0.13
		s-0.36,0.21-0.5,0.36s-0.26,0.32-0.35,0.52s-0.17,0.4-0.23,0.62s-0.1,0.44-0.12,0.66s-0.04,0.43-0.04,0.63v0.98
		c0,0.2,0.02,0.41,0.04,0.63s0.07,0.44,0.13,0.66s0.13,0.42,0.23,0.62s0.21,0.37,0.35,0.52s0.31,0.27,0.5,0.36s0.41,0.13,0.67,0.13
		s0.48-0.04,0.67-0.13s0.36-0.21,0.5-0.36s0.25-0.32,0.35-0.52s0.17-0.4,0.22-0.62s0.1-0.44,0.12-0.66s0.03-0.44,0.04-0.64V87.54z"
		/>
	<path fill="#46416B" d="M107.35,83.77l0.01,5.78c-0.01,0.4-0.08,0.77-0.22,1.12s-0.33,0.65-0.57,0.91s-0.54,0.46-0.88,0.62
		s-0.71,0.23-1.12,0.23c-0.41,0-0.79-0.07-1.13-0.22s-0.63-0.35-0.87-0.61s-0.43-0.56-0.57-0.91s-0.21-0.72-0.21-1.12l0.01-5.78
		h1.03l0.02,5.78c0,0.25,0.04,0.5,0.12,0.73s0.19,0.44,0.33,0.62s0.32,0.32,0.53,0.43s0.46,0.16,0.74,0.16s0.52-0.05,0.73-0.16
		s0.39-0.25,0.53-0.43s0.25-0.39,0.33-0.62s0.12-0.48,0.12-0.73l0.02-5.78H107.35z"/>
	<path fill="#46416B" d="M114.93,84.69h-2.64v7.61h-1.05v-7.61h-2.64v-0.93h6.33V84.69z"/>
</g>
<g>
	<path fill="#46416B" d="M143.19,83.77l1.39,4.27l1.5-4.27h1.35v8.53h-1.05v-3.4l0.09-3.56l-1.58,4.59h-0.62l-1.45-4.47l0.09,3.44
		v3.4h-1.05v-8.53H143.19z"/>
	<path fill="#46416B" d="M151.79,88.05l1.95-4.28h1.23l-2.65,5.35l-0.02,3.18h-1.01l-0.02-3.18l-2.65-5.35h1.24L151.79,88.05z"/>
	<path fill="#46416B" d="M161.54,88.53c0,0.3-0.03,0.61-0.08,0.92s-0.12,0.61-0.23,0.9s-0.23,0.56-0.39,0.81s-0.35,0.47-0.57,0.66
		s-0.47,0.33-0.75,0.44s-0.6,0.16-0.95,0.16s-0.67-0.05-0.95-0.16s-0.53-0.25-0.75-0.44s-0.41-0.41-0.57-0.66s-0.29-0.52-0.4-0.81
		s-0.18-0.59-0.23-0.9s-0.08-0.62-0.08-0.92v-0.97c0-0.3,0.03-0.61,0.08-0.92s0.12-0.61,0.23-0.9s0.23-0.56,0.39-0.81
		s0.35-0.47,0.57-0.66s0.47-0.34,0.75-0.45s0.6-0.16,0.95-0.16s0.67,0.05,0.96,0.16s0.54,0.25,0.76,0.44s0.41,0.41,0.57,0.66
		s0.29,0.52,0.39,0.81s0.18,0.59,0.23,0.9s0.08,0.62,0.08,0.93V88.53z M160.46,87.54c0-0.2-0.02-0.42-0.04-0.64
		s-0.06-0.44-0.12-0.66s-0.13-0.42-0.23-0.62s-0.21-0.37-0.35-0.52s-0.31-0.27-0.5-0.36s-0.41-0.13-0.67-0.13
		c-0.25,0-0.47,0.04-0.66,0.13s-0.36,0.21-0.5,0.36s-0.26,0.32-0.35,0.52s-0.17,0.4-0.23,0.62s-0.1,0.44-0.12,0.66
		s-0.04,0.43-0.04,0.63v0.98c0,0.2,0.02,0.41,0.04,0.63s0.07,0.44,0.13,0.66s0.13,0.42,0.23,0.62s0.21,0.37,0.35,0.52
		s0.31,0.27,0.5,0.36s0.41,0.13,0.67,0.13s0.48-0.04,0.67-0.13s0.36-0.21,0.5-0.36s0.25-0.32,0.35-0.52s0.17-0.4,0.22-0.62
		s0.1-0.44,0.12-0.66s0.03-0.44,0.04-0.64V87.54z"/>
</g>
<path fill="#FFFFFF" d="M5.95,35.35c-0.28,0-0.5-0.22-0.5-0.5c0-11.49,4.23-22.52,11.9-31.05c0.19-0.21,0.5-0.22,0.71-0.04
	c0.21,0.18,0.22,0.5,0.04,0.71C10.58,12.82,6.45,23.61,6.45,34.85C6.45,35.13,6.22,35.35,5.95,35.35z"/>
<path fill="#46416B" d="M33.41,11.86c-0.21-0.18-0.53-0.15-0.7,0.06c-2.76,3.27-4.89,7-6.31,10.98l-11.78-4.4l2.07-0.47
	c0.27-0.06,0.44-0.33,0.38-0.6c-0.06-0.27-0.33-0.44-0.6-0.38l-4.25,0.96l2.19,3.76c0.09,0.16,0.26,0.25,0.43,0.25
	c0.09,0,0.17-0.02,0.25-0.07c0.24-0.14,0.32-0.45,0.18-0.68l-1.09-1.86l11.87,4.44c-1.15,3.53-1.75,7.24-1.75,11
	c0,0.28,0.22,0.5,0.5,0.5s0.5-0.22,0.5-0.5c0-8.15,2.89-16.07,8.14-22.29C33.65,12.36,33.62,12.04,33.41,11.86z"/>
<g>
	<path fill="#46416B" d="M55.4,27.2c-0.05,0.39-0.15,0.76-0.3,1.09s-0.35,0.61-0.59,0.85s-0.53,0.42-0.87,0.55s-0.71,0.2-1.12,0.2
		c-0.35,0-0.67-0.05-0.96-0.15s-0.54-0.24-0.77-0.41s-0.42-0.38-0.58-0.62s-0.3-0.5-0.4-0.78s-0.19-0.58-0.24-0.88
		s-0.08-0.62-0.08-0.94V24.9c0-0.32,0.03-0.63,0.08-0.94s0.13-0.6,0.24-0.88s0.24-0.54,0.4-0.78s0.36-0.45,0.58-0.62
		s0.48-0.31,0.76-0.41s0.61-0.15,0.96-0.15c0.43,0,0.81,0.07,1.14,0.2s0.62,0.32,0.87,0.56s0.44,0.53,0.58,0.86s0.24,0.71,0.29,1.11
		h-1.08c-0.04-0.26-0.1-0.5-0.18-0.72s-0.2-0.42-0.35-0.59s-0.32-0.3-0.53-0.4S52.8,22,52.51,22c-0.26,0-0.49,0.04-0.68,0.13
		s-0.37,0.2-0.51,0.34s-0.26,0.31-0.36,0.5s-0.17,0.39-0.23,0.61s-0.1,0.43-0.13,0.66s-0.04,0.44-0.04,0.65v1.2
		c0,0.21,0.01,0.43,0.04,0.65s0.07,0.45,0.13,0.66s0.13,0.42,0.23,0.61s0.21,0.36,0.36,0.51s0.31,0.26,0.51,0.35S52.25,29,52.51,29
		c0.29,0,0.53-0.04,0.74-0.13s0.39-0.22,0.53-0.38s0.26-0.35,0.35-0.57s0.15-0.46,0.18-0.72H55.4z"/>
	<path fill="#46416B" d="M61.09,29.76c-0.04-0.08-0.08-0.18-0.1-0.31s-0.04-0.25-0.06-0.38c-0.11,0.11-0.23,0.21-0.37,0.31
		s-0.28,0.18-0.45,0.26s-0.33,0.13-0.52,0.18s-0.38,0.06-0.59,0.06c-0.34,0-0.64-0.05-0.91-0.15s-0.5-0.23-0.69-0.4
		s-0.34-0.36-0.44-0.59s-0.16-0.48-0.16-0.74c0-0.35,0.07-0.65,0.21-0.91s0.33-0.48,0.59-0.65s0.56-0.3,0.92-0.39
		s0.76-0.13,1.2-0.13h1.18v-0.5c0-0.19-0.04-0.36-0.11-0.52s-0.17-0.28-0.3-0.39s-0.29-0.19-0.47-0.25s-0.39-0.09-0.62-0.09
		c-0.21,0-0.41,0.03-0.58,0.08s-0.31,0.13-0.43,0.22s-0.21,0.2-0.27,0.32s-0.1,0.25-0.1,0.38h-1.09c0-0.23,0.06-0.46,0.18-0.68
		s0.28-0.42,0.5-0.6s0.48-0.32,0.79-0.43s0.66-0.16,1.06-0.16c0.36,0,0.69,0.04,1,0.13s0.58,0.22,0.8,0.4s0.4,0.4,0.53,0.67
		S62,25.08,62,25.43v2.95c0,0.21,0.02,0.43,0.06,0.67s0.09,0.44,0.16,0.62v0.09H61.09z M59.17,28.94c0.21,0,0.41-0.03,0.59-0.08
		s0.35-0.13,0.5-0.22s0.28-0.19,0.39-0.31s0.2-0.24,0.26-0.36v-1.28h-1.01c-0.63,0-1.12,0.09-1.48,0.28s-0.53,0.48-0.53,0.88
		c0,0.16,0.03,0.3,0.08,0.43s0.13,0.25,0.24,0.34s0.24,0.17,0.4,0.23S58.96,28.94,59.17,28.94z"/>
	<path fill="#46416B" d="M63.97,20.76h3.24v8.06h2.07v0.94h-5.31v-0.94h2.16v-7.12h-2.16V20.76z"/>
	<path fill="#46416B" d="M70.94,20.76h3.24v8.06h2.07v0.94h-5.31v-0.94h2.16v-7.12h-2.16V20.76z"/>
	<path fill="#46416B" d="M85.06,29.76v-8.53h1.97c0.59,0.01,1.12,0.11,1.59,0.3s0.86,0.46,1.18,0.81s0.57,0.76,0.74,1.24
		s0.26,1.02,0.26,1.6v0.63c0,0.59-0.09,1.12-0.26,1.6s-0.42,0.9-0.74,1.24s-0.72,0.62-1.18,0.81s-1,0.29-1.59,0.3H85.06z
		 M86.16,22.12v6.76h0.87c0.46,0,0.86-0.08,1.2-0.24s0.61-0.37,0.83-0.65s0.38-0.6,0.49-0.97s0.16-0.77,0.17-1.21v-0.64
		c0-0.43-0.06-0.83-0.17-1.2s-0.27-0.69-0.49-0.96s-0.5-0.49-0.83-0.64s-0.73-0.24-1.2-0.25H86.16z"/>
	<path fill="#46416B" d="M96.51,28.89c-0.21,0.31-0.47,0.56-0.79,0.73s-0.68,0.26-1.1,0.26c-0.33,0-0.63-0.05-0.9-0.16
		s-0.5-0.26-0.69-0.48s-0.34-0.5-0.44-0.83s-0.16-0.74-0.16-1.22v-3.77h1.08v3.78c0,0.34,0.03,0.63,0.08,0.86s0.14,0.41,0.25,0.54
		s0.24,0.23,0.4,0.28s0.34,0.08,0.55,0.08c0.44,0,0.8-0.09,1.07-0.27s0.47-0.42,0.61-0.73v-4.55h1.09v6.34h-0.98L96.51,28.89z"/>
	<path fill="#46416B" d="M103.31,23.3c0.1,0,0.21,0,0.32,0.01s0.21,0.02,0.31,0.03s0.19,0.03,0.28,0.05s0.15,0.04,0.21,0.06
		l-0.15,1.06c-0.21-0.05-0.41-0.08-0.6-0.1s-0.39-0.03-0.59-0.03c-0.51,0-0.92,0.12-1.23,0.35s-0.55,0.55-0.69,0.97v4.07h-1.09
		v-6.34h1.03l0.05,1.01c0.26-0.35,0.57-0.62,0.93-0.82S102.85,23.3,103.31,23.3z"/>
	<path fill="#46416B" d="M110.15,29.76c-0.04-0.08-0.08-0.18-0.1-0.31s-0.04-0.25-0.06-0.38c-0.11,0.11-0.23,0.21-0.37,0.31
		s-0.28,0.18-0.45,0.26s-0.33,0.13-0.52,0.18s-0.38,0.06-0.59,0.06c-0.34,0-0.64-0.05-0.91-0.15s-0.5-0.23-0.69-0.4
		s-0.34-0.36-0.44-0.59s-0.16-0.48-0.16-0.74c0-0.35,0.07-0.65,0.21-0.91s0.33-0.48,0.59-0.65s0.56-0.3,0.92-0.39
		s0.76-0.13,1.2-0.13h1.18v-0.5c0-0.19-0.04-0.36-0.11-0.52s-0.17-0.28-0.3-0.39s-0.29-0.19-0.47-0.25s-0.39-0.09-0.62-0.09
		c-0.21,0-0.41,0.03-0.58,0.08s-0.31,0.13-0.43,0.22s-0.21,0.2-0.27,0.32s-0.1,0.25-0.1,0.38h-1.09c0-0.23,0.06-0.46,0.18-0.68
		s0.28-0.42,0.5-0.6s0.48-0.32,0.79-0.43s0.66-0.16,1.06-0.16c0.36,0,0.69,0.04,1,0.13s0.58,0.22,0.8,0.4s0.4,0.4,0.53,0.67
		s0.19,0.58,0.19,0.93v2.95c0,0.21,0.02,0.43,0.06,0.67s0.09,0.44,0.16,0.62v0.09H110.15z M108.23,28.94c0.21,0,0.41-0.03,0.59-0.08
		s0.35-0.13,0.5-0.22s0.28-0.19,0.39-0.31s0.2-0.24,0.26-0.36v-1.28h-1.01c-0.63,0-1.12,0.09-1.48,0.28s-0.53,0.48-0.53,0.88
		c0,0.16,0.03,0.3,0.08,0.43s0.13,0.25,0.24,0.34s0.24,0.17,0.4,0.23S108.02,28.94,108.23,28.94z"/>
	<path fill="#46416B" d="M115.39,21.89v1.54h2.41v0.84h-2.41v3.45c0,0.25,0.03,0.45,0.09,0.61s0.15,0.29,0.26,0.38
		s0.24,0.16,0.38,0.2s0.29,0.06,0.45,0.06c0.12,0,0.24-0.01,0.36-0.02s0.25-0.03,0.37-0.05s0.23-0.04,0.33-0.06s0.19-0.04,0.25-0.06
		l0.15,0.77c-0.09,0.05-0.2,0.1-0.33,0.14s-0.27,0.08-0.42,0.11s-0.31,0.05-0.48,0.07s-0.34,0.02-0.51,0.02
		c-0.28,0-0.54-0.04-0.79-0.12s-0.46-0.21-0.64-0.38s-0.32-0.4-0.42-0.67s-0.16-0.61-0.16-1v-3.45h-1.66v-0.84h1.66v-1.54H115.39z"
		/>
	<path fill="#46416B" d="M119.84,23.42h3.24v5.4h2.07v0.94h-5.31v-0.94h2.16v-4.46h-2.16V23.42z M121.85,21.76
		c0-0.18,0.05-0.33,0.16-0.45s0.27-0.18,0.49-0.18c0.21,0,0.38,0.06,0.49,0.18s0.16,0.27,0.16,0.45c0,0.18-0.05,0.32-0.16,0.44
		s-0.27,0.18-0.49,0.18c-0.22,0-0.38-0.06-0.49-0.18S121.85,21.93,121.85,21.76z"/>
	<path fill="#46416B" d="M126.28,26.53c0-0.46,0.07-0.88,0.2-1.27s0.32-0.73,0.57-1.02s0.55-0.52,0.91-0.68s0.76-0.25,1.2-0.25
		c0.45,0,0.85,0.08,1.21,0.25s0.66,0.39,0.91,0.68s0.44,0.63,0.57,1.02s0.2,0.82,0.2,1.27v0.13c0,0.46-0.07,0.88-0.2,1.27
		s-0.32,0.73-0.57,1.02s-0.55,0.52-0.91,0.68s-0.76,0.25-1.2,0.25c-0.45,0-0.85-0.08-1.21-0.25s-0.66-0.39-0.91-0.68
		s-0.44-0.63-0.57-1.02s-0.2-0.81-0.2-1.27V26.53z M127.37,26.66c0,0.31,0.04,0.61,0.11,0.89s0.19,0.53,0.34,0.75
		s0.34,0.38,0.57,0.51s0.49,0.19,0.79,0.19c0.3,0,0.56-0.06,0.78-0.19s0.41-0.29,0.56-0.51s0.26-0.46,0.34-0.75s0.11-0.58,0.11-0.89
		v-0.13c0-0.31-0.04-0.6-0.11-0.89s-0.19-0.53-0.34-0.75s-0.34-0.39-0.56-0.51s-0.49-0.19-0.79-0.19s-0.56,0.06-0.79,0.19
		s-0.41,0.3-0.56,0.51s-0.26,0.46-0.34,0.75s-0.11,0.58-0.11,0.89V26.66z"/>
	<path fill="#46416B" d="M134.78,23.42l0.08,0.94c0.23-0.33,0.51-0.58,0.85-0.77s0.71-0.28,1.12-0.28c0.33,0,0.63,0.05,0.91,0.14
		s0.5,0.24,0.69,0.44s0.34,0.45,0.44,0.76s0.16,0.67,0.16,1.09v4.03h-1.08v-4c0-0.28-0.03-0.52-0.09-0.71s-0.16-0.35-0.28-0.47
		s-0.27-0.21-0.45-0.26s-0.38-0.08-0.61-0.08c-0.36,0-0.68,0.09-0.96,0.27s-0.5,0.42-0.66,0.72v4.55h-1.08v-6.34H134.78z"/>
</g>
</svg>
