<?xml version="1.0" encoding="utf-8"?>
<!-- Generator: Adobe Illustrator 23.0.1, SVG Export Plug-In . SVG Version: 6.00 Build 0)  -->
<svg version="1.1" id="Labels" xmlns="http://www.w3.org/2000/svg" xmlns:xlink="http://www.w3.org/1999/xlink" x="0px" y="0px"
	 width="1200px" height="1080px" viewBox="0 0 1200 1080" enable-background="new 0 0 1200 1080" xml:space="preserve">
<g>
	<rect x="958.47" y="630.16" fill="none" width="60.47" height="11.88"/>
	<path fill="#605599" d="M964.33,630.71h1.29v6.92c-0.01,0.46-0.1,0.88-0.26,1.27c-0.17,0.39-0.39,0.72-0.68,1s-0.63,0.5-1.02,0.66
		s-0.81,0.24-1.27,0.24c-0.46,0-0.89-0.07-1.27-0.21c-0.38-0.14-0.71-0.34-0.99-0.61c-0.28-0.26-0.5-0.58-0.67-0.95
		c-0.17-0.37-0.27-0.79-0.31-1.25h1.29c0.01,0.28,0.07,0.54,0.17,0.77c0.1,0.24,0.23,0.44,0.4,0.62c0.17,0.18,0.37,0.31,0.6,0.41
		c0.24,0.1,0.5,0.14,0.79,0.14c0.3,0,0.57-0.06,0.81-0.17c0.24-0.11,0.44-0.26,0.6-0.45c0.17-0.19,0.29-0.41,0.38-0.67
		s0.14-0.52,0.15-0.8V630.71z"/>
	<path fill="#605599" d="M972.26,638.08h-3.32l-0.8,2.58h-1.26l3.21-9.95h1.06l3.16,9.95h-1.26L972.26,638.08z M969.28,636.98h2.65
		l-1.31-4.32L969.28,636.98z"/>
	<path fill="#605599" d="M982.17,640.66h-1.29l-3.86-7.44l-0.02,7.44h-1.28v-9.95H977l3.86,7.42l0.02-7.42h1.28V640.66z"/>
</g>
<g>
	<rect x="181.06" y="630.16" fill="none" width="60.47" height="11.88"/>
	<path fill="#605599" d="M222.28,630.71h1.29v6.92c-0.01,0.46-0.1,0.88-0.26,1.27c-0.17,0.39-0.39,0.72-0.68,1s-0.63,0.5-1.02,0.66
		s-0.81,0.24-1.27,0.24c-0.46,0-0.89-0.07-1.27-0.21c-0.38-0.14-0.71-0.34-0.99-0.61c-0.28-0.26-0.5-0.58-0.67-0.95
		c-0.17-0.37-0.27-0.79-0.31-1.25h1.29c0.01,0.28,0.07,0.54,0.17,0.77c0.1,0.24,0.23,0.44,0.4,0.62c0.17,0.18,0.37,0.31,0.6,0.41
		s0.5,0.14,0.79,0.14c0.3,0,0.57-0.06,0.81-0.17c0.24-0.11,0.44-0.26,0.6-0.45s0.29-0.41,0.38-0.67s0.14-0.52,0.15-0.8V630.71z"/>
	<path fill="#605599" d="M232.13,630.71l0.01,6.74c-0.01,0.46-0.09,0.9-0.25,1.31c-0.16,0.41-0.38,0.76-0.67,1.06
		c-0.29,0.3-0.63,0.54-1.03,0.72c-0.4,0.18-0.83,0.26-1.31,0.26c-0.48,0-0.92-0.09-1.32-0.26c-0.4-0.17-0.74-0.41-1.02-0.71
		c-0.28-0.3-0.5-0.66-0.66-1.07c-0.16-0.41-0.24-0.84-0.25-1.31l0.01-6.74h1.2l0.03,6.74c0,0.3,0.05,0.58,0.14,0.85
		s0.22,0.51,0.38,0.72c0.17,0.21,0.37,0.38,0.62,0.51c0.25,0.13,0.53,0.19,0.86,0.19s0.61-0.06,0.85-0.19
		c0.25-0.12,0.45-0.29,0.62-0.51s0.29-0.45,0.38-0.73s0.13-0.56,0.14-0.85l0.02-6.74H232.13z"/>
	<path fill="#605599" d="M240.55,640.66h-1.29l-3.86-7.44l-0.02,7.44h-1.28v-9.95h1.29l3.86,7.42l0.02-7.42h1.28V640.66z"/>
</g>
<g>
	<rect x="181.06" y="438.06" fill="none" width="60.47" height="11.88"/>
	<path fill="#605599" d="M222.47,438.6h1.29v6.92c-0.01,0.46-0.1,0.88-0.26,1.27s-0.39,0.72-0.68,1s-0.63,0.5-1.02,0.66
		s-0.81,0.24-1.27,0.24c-0.46,0-0.89-0.07-1.27-0.21s-0.71-0.34-0.99-0.6s-0.5-0.58-0.67-0.95s-0.27-0.79-0.31-1.25h1.29
		c0.01,0.28,0.07,0.54,0.17,0.77s0.23,0.44,0.4,0.62s0.37,0.31,0.6,0.41s0.5,0.14,0.79,0.14c0.3,0,0.57-0.06,0.81-0.17
		s0.44-0.26,0.6-0.45s0.29-0.41,0.38-0.67s0.14-0.52,0.15-0.8V438.6z"/>
	<path fill="#605599" d="M232.32,438.6l0.01,6.74c-0.01,0.46-0.09,0.9-0.25,1.31s-0.38,0.76-0.67,1.06s-0.63,0.54-1.03,0.72
		s-0.83,0.26-1.31,0.26c-0.48,0-0.92-0.09-1.32-0.26s-0.74-0.41-1.02-0.71s-0.5-0.66-0.66-1.07s-0.24-0.84-0.25-1.31l0.01-6.74h1.2
		l0.03,6.74c0,0.3,0.05,0.58,0.14,0.85s0.22,0.52,0.38,0.72s0.37,0.38,0.62,0.51s0.53,0.19,0.86,0.19s0.61-0.06,0.85-0.19
		s0.45-0.29,0.62-0.51s0.29-0.45,0.38-0.73s0.13-0.56,0.14-0.85l0.02-6.74H232.32z"/>
	<path fill="#605599" d="M235.75,447.48h4.87v1.07h-6.13v-9.95h1.26V447.48z"/>
</g>
<g>
	<rect x="958.47" y="437.76" fill="none" width="60.47" height="11.88"/>
	<path fill="#605599" d="M959.53,448.26v-9.95h2.3c0.69,0.01,1.31,0.13,1.86,0.35c0.54,0.23,1,0.54,1.38,0.94s0.66,0.89,0.86,1.45
		s0.3,1.19,0.3,1.87v0.73c0,0.68-0.11,1.31-0.3,1.87s-0.49,1.05-0.86,1.45s-0.84,0.72-1.38,0.94c-0.54,0.23-1.16,0.34-1.86,0.35
		H959.53z M960.81,439.35v7.88h1.02c0.54,0,1-0.1,1.39-0.28c0.39-0.18,0.72-0.44,0.97-0.76c0.26-0.32,0.45-0.69,0.57-1.13
		c0.13-0.43,0.19-0.9,0.2-1.41v-0.75c0-0.51-0.07-0.97-0.2-1.4c-0.13-0.43-0.32-0.8-0.57-1.12c-0.26-0.32-0.58-0.57-0.97-0.75
		c-0.39-0.18-0.86-0.28-1.39-0.29H960.81z"/>
	<path fill="#605599" d="M973.42,443.66h-4.16v3.53h4.85v1.07H968v-9.95h6.05v1.08h-4.79v3.2h4.16V443.66z"/>
	<path fill="#605599" d="M982.27,445.27c-0.06,0.46-0.18,0.88-0.36,1.27s-0.41,0.72-0.69,0.99c-0.29,0.28-0.62,0.49-1.01,0.64
		s-0.82,0.23-1.3,0.23c-0.41,0-0.78-0.06-1.12-0.17s-0.63-0.28-0.9-0.48c-0.26-0.21-0.49-0.45-0.68-0.72
		c-0.19-0.28-0.35-0.58-0.47-0.91c-0.13-0.33-0.22-0.67-0.28-1.03s-0.09-0.72-0.1-1.09v-1.39c0-0.37,0.04-0.73,0.1-1.09
		s0.15-0.7,0.28-1.03c0.12-0.33,0.28-0.63,0.47-0.91c0.19-0.28,0.41-0.52,0.68-0.73c0.26-0.21,0.56-0.37,0.89-0.48
		c0.33-0.12,0.71-0.17,1.12-0.17c0.5,0,0.94,0.08,1.33,0.23c0.39,0.15,0.73,0.37,1.01,0.65c0.28,0.28,0.51,0.62,0.68,1.01
		s0.28,0.82,0.34,1.3h-1.26c-0.04-0.3-0.11-0.58-0.21-0.84c-0.1-0.26-0.23-0.49-0.4-0.68c-0.17-0.2-0.38-0.35-0.62-0.46
		c-0.24-0.11-0.53-0.17-0.87-0.17c-0.3,0-0.57,0.05-0.8,0.15c-0.23,0.1-0.43,0.23-0.59,0.4c-0.17,0.17-0.31,0.36-0.42,0.59
		c-0.11,0.22-0.2,0.46-0.27,0.71s-0.12,0.51-0.15,0.77c-0.03,0.26-0.04,0.52-0.04,0.76v1.4c0,0.25,0.01,0.5,0.04,0.76
		c0.03,0.26,0.08,0.52,0.15,0.77s0.16,0.49,0.27,0.71s0.25,0.42,0.42,0.59c0.17,0.17,0.37,0.31,0.59,0.4c0.23,0.1,0.5,0.15,0.8,0.15
		c0.33,0,0.62-0.05,0.87-0.16c0.24-0.1,0.45-0.25,0.62-0.44c0.17-0.19,0.3-0.41,0.4-0.67c0.1-0.26,0.17-0.54,0.21-0.84H982.27z"/>
</g>
<g>
	<rect x="855.35" y="804.34" fill="none" width="60.47" height="11.88"/>
	<path fill="#605599" d="M862.08,810.44h-4.14v4.4h-1.28v-9.95h6.11v1.08h-4.83v3.4h4.14V810.44z"/>
	<path fill="#605599" d="M870.02,810.24h-4.16v3.53h4.85v1.07h-6.11v-9.95h6.05v1.08h-4.79v3.2h4.16V810.24z"/>
	<path fill="#605599" d="M872.54,814.84v-9.95h2.96c0.41,0,0.81,0.06,1.2,0.16c0.39,0.1,0.74,0.26,1.05,0.48
		c0.3,0.21,0.55,0.49,0.73,0.82c0.18,0.33,0.27,0.73,0.27,1.2c0,0.26-0.05,0.5-0.13,0.71c-0.08,0.21-0.19,0.41-0.33,0.58
		c-0.14,0.17-0.3,0.32-0.49,0.45c-0.19,0.13-0.39,0.24-0.59,0.33c0.26,0.08,0.51,0.19,0.73,0.33c0.22,0.14,0.41,0.32,0.57,0.52
		c0.16,0.2,0.28,0.43,0.37,0.69c0.09,0.25,0.13,0.53,0.13,0.83c0,0.46-0.08,0.88-0.27,1.23c-0.18,0.36-0.43,0.65-0.73,0.89
		c-0.31,0.24-0.66,0.42-1.06,0.55c-0.4,0.13-0.81,0.19-1.23,0.2H872.54z M873.81,809.13h1.76c0.24,0,0.47-0.04,0.7-0.11
		c0.23-0.07,0.43-0.17,0.61-0.31c0.18-0.13,0.32-0.3,0.43-0.5c0.11-0.2,0.16-0.42,0.16-0.68c0-0.28-0.05-0.52-0.16-0.71
		c-0.11-0.2-0.25-0.36-0.43-0.48c-0.18-0.12-0.39-0.22-0.62-0.28c-0.23-0.06-0.47-0.09-0.72-0.1h-1.73V809.13z M873.81,810.18v3.58
		h1.95c0.26,0,0.51-0.05,0.75-0.13c0.24-0.08,0.45-0.2,0.63-0.35c0.18-0.15,0.33-0.33,0.43-0.55c0.11-0.22,0.16-0.47,0.16-0.75
		c0-0.28-0.04-0.53-0.14-0.75c-0.1-0.22-0.23-0.4-0.41-0.56c-0.17-0.15-0.38-0.27-0.61-0.35s-0.48-0.13-0.75-0.14H873.81z"/>
</g>
<g>
	<rect x="282.69" y="804.34" fill="none" width="60.47" height="11.88"/>
	<path fill="#605599" d="M321.74,804.88l1.62,4.98l1.75-4.98h1.57v9.95h-1.23v-3.97l0.1-4.16l-1.84,5.36H323l-1.69-5.22l0.1,4.01
		v3.97h-1.23v-9.95H321.74z"/>
	<path fill="#605599" d="M333.51,812.26h-3.32l-0.8,2.58h-1.26l3.21-9.95h1.06l3.16,9.95h-1.26L333.51,812.26z M330.53,811.16h2.65
		l-1.31-4.32L330.53,811.16z"/>
	<path fill="#605599" d="M338.88,809.88l2.27-5h1.44l-3.1,6.24l-0.02,3.71h-1.18l-0.02-3.71l-3.1-6.24h1.44L338.88,809.88z"/>
</g>
<g>
	<rect x="282.69" y="266.16" fill="none" width="60.47" height="11.88"/>
	<path fill="#605599" d="M324.25,274.08h-3.32l-0.8,2.58h-1.26l3.21-9.95h1.06l3.16,9.95h-1.26L324.25,274.08z M321.27,272.98h2.65
		l-1.31-4.32L321.27,272.98z"/>
	<path fill="#605599" d="M333.81,266.71l0.01,6.74c-0.01,0.46-0.09,0.9-0.25,1.31s-0.38,0.76-0.67,1.06s-0.63,0.54-1.03,0.72
		s-0.83,0.26-1.31,0.26c-0.48,0-0.92-0.09-1.32-0.26s-0.74-0.41-1.02-0.71s-0.5-0.66-0.66-1.07s-0.24-0.84-0.25-1.31l0.01-6.74h1.2
		l0.03,6.74c0,0.3,0.05,0.58,0.14,0.85s0.22,0.52,0.38,0.72s0.37,0.38,0.62,0.51s0.53,0.19,0.86,0.19s0.61-0.06,0.85-0.19
		s0.45-0.29,0.62-0.51s0.29-0.45,0.38-0.73s0.13-0.56,0.14-0.85l0.02-6.74H333.81z"/>
	<path fill="#605599" d="M342.39,275.36c-0.42,0.49-0.9,0.86-1.44,1.09s-1.14,0.35-1.78,0.35c-0.41,0-0.79-0.07-1.13-0.19
		s-0.65-0.29-0.93-0.5s-0.51-0.46-0.72-0.75s-0.38-0.6-0.52-0.93s-0.24-0.69-0.31-1.05s-0.11-0.74-0.11-1.11v-1.16
		c0-0.37,0.04-0.74,0.1-1.1s0.16-0.72,0.28-1.06s0.29-0.65,0.48-0.94s0.42-0.54,0.69-0.75s0.57-0.38,0.91-0.5s0.72-0.18,1.13-0.18
		c0.46,0,0.89,0.07,1.29,0.22s0.73,0.35,1.03,0.62s0.53,0.59,0.7,0.96s0.29,0.8,0.33,1.26h-1.25c-0.05-0.29-0.13-0.55-0.23-0.8
		s-0.24-0.45-0.41-0.63s-0.38-0.31-0.61-0.41s-0.51-0.15-0.83-0.15c-0.3,0-0.57,0.05-0.8,0.15s-0.44,0.24-0.61,0.41
		s-0.32,0.38-0.43,0.6s-0.21,0.47-0.28,0.73s-0.13,0.52-0.16,0.78s-0.05,0.52-0.05,0.77v1.17c0,0.25,0.03,0.51,0.06,0.78
		s0.1,0.53,0.18,0.78s0.19,0.5,0.31,0.72s0.28,0.43,0.46,0.6s0.39,0.31,0.63,0.41s0.51,0.16,0.81,0.16c0.17,0,0.35,0,0.54-0.02
		s0.37-0.05,0.55-0.11s0.34-0.13,0.5-0.22s0.28-0.22,0.39-0.37l0.01-2.24h-2.02v-1.07h3.23L342.39,275.36z"/>
</g>
<g>
	<rect x="857.17" y="266.16" fill="none" width="60.47" height="11.88"/>
	<path fill="#605599" d="M864.59,276.66h-1.29l-3.86-7.44l-0.02,7.44h-1.28v-9.95h1.29l3.86,7.42l0.02-7.42h1.28V276.66z"/>
	<path fill="#605599" d="M873.25,272.26c0,0.36-0.04,0.71-0.09,1.08c-0.06,0.36-0.14,0.71-0.26,1.05c-0.12,0.34-0.27,0.65-0.45,0.94
		s-0.4,0.55-0.66,0.77c-0.25,0.22-0.55,0.39-0.88,0.52c-0.33,0.13-0.7,0.19-1.11,0.19s-0.78-0.06-1.11-0.19
		c-0.33-0.13-0.62-0.3-0.88-0.52c-0.25-0.22-0.48-0.48-0.66-0.77c-0.19-0.29-0.34-0.61-0.46-0.95c-0.12-0.34-0.21-0.69-0.27-1.05
		c-0.06-0.36-0.09-0.72-0.1-1.07v-1.13c0-0.36,0.04-0.71,0.09-1.08c0.06-0.36,0.15-0.71,0.27-1.05c0.12-0.34,0.27-0.65,0.46-0.95
		s0.4-0.55,0.66-0.77c0.26-0.22,0.55-0.39,0.88-0.52c0.33-0.13,0.7-0.19,1.11-0.19s0.78,0.06,1.11,0.19
		c0.33,0.13,0.63,0.3,0.88,0.52c0.26,0.22,0.48,0.48,0.66,0.77s0.34,0.61,0.46,0.95c0.12,0.34,0.21,0.69,0.27,1.05
		c0.06,0.36,0.09,0.72,0.09,1.08V272.26z M872,271.11c0-0.24-0.02-0.48-0.05-0.74s-0.07-0.51-0.14-0.77
		c-0.07-0.25-0.15-0.49-0.26-0.72s-0.25-0.43-0.41-0.61s-0.36-0.31-0.58-0.42c-0.22-0.1-0.48-0.15-0.78-0.15
		c-0.29,0-0.55,0.05-0.77,0.16c-0.22,0.1-0.42,0.25-0.58,0.42s-0.3,0.38-0.41,0.61s-0.2,0.47-0.26,0.72
		c-0.07,0.25-0.11,0.51-0.14,0.77c-0.03,0.26-0.05,0.5-0.05,0.73v1.15c0,0.23,0.02,0.48,0.05,0.74c0.03,0.26,0.08,0.52,0.15,0.77
		s0.16,0.5,0.27,0.73s0.25,0.44,0.41,0.61s0.36,0.32,0.58,0.42c0.22,0.1,0.48,0.16,0.78,0.16c0.3,0,0.56-0.05,0.78-0.16
		s0.42-0.25,0.58-0.42c0.16-0.18,0.3-0.38,0.4-0.61c0.11-0.23,0.19-0.47,0.26-0.72c0.07-0.25,0.11-0.51,0.14-0.77
		c0.02-0.26,0.04-0.51,0.04-0.75V271.11z"/>
	<path fill="#605599" d="M877.77,274.62l2.35-7.92h1.35l-3.14,9.95h-1.1l-3.14-9.95h1.35L877.77,274.62z"/>
</g>
<g>
	<rect x="685.62" y="898.52" fill="none" width="60.47" height="11.88"/>
	<path fill="#605599" d="M688.2,899.06l1.62,4.98l1.75-4.98h1.57v9.95h-1.23v-3.97l0.1-4.16l-1.84,5.36h-0.72l-1.69-5.22l0.1,4.01
		v3.97h-1.23v-9.95H688.2z"/>
	<path fill="#605599" d="M699.97,906.44h-3.32l-0.8,2.58h-1.26l3.21-9.95h1.06l3.16,9.95h-1.26L699.97,906.44z M696.99,905.34h2.65
		l-1.31-4.32L696.99,905.34z"/>
	<path fill="#605599" d="M706.8,904.96h-1.99v4.06h-1.26v-9.95h2.92c0.46,0.01,0.9,0.08,1.31,0.2s0.77,0.31,1.08,0.55
		s0.55,0.55,0.72,0.93c0.18,0.37,0.26,0.81,0.26,1.31c0,0.32-0.05,0.62-0.14,0.89c-0.09,0.27-0.22,0.51-0.39,0.73
		s-0.36,0.41-0.59,0.58c-0.23,0.17-0.48,0.31-0.75,0.43l2.11,4.25l-0.01,0.08h-1.33L706.8,904.96z M704.81,903.92h1.7
		c0.28,0,0.55-0.05,0.8-0.13c0.25-0.08,0.47-0.21,0.66-0.37c0.19-0.16,0.34-0.35,0.45-0.58c0.11-0.23,0.16-0.5,0.16-0.8
		c0-0.32-0.05-0.6-0.16-0.84c-0.11-0.24-0.25-0.44-0.44-0.6c-0.19-0.16-0.41-0.28-0.67-0.37c-0.26-0.08-0.54-0.13-0.84-0.13h-1.66
		V903.92z"/>
</g>
<g>
	<rect x="453.29" y="898.52" fill="none" width="60.47" height="11.88"/>
	<path fill="#605599" d="M494.83,906.44h-3.32l-0.8,2.58h-1.26l3.21-9.95h1.06l3.16,9.95h-1.26L494.83,906.44z M491.85,905.34h2.65
		l-1.31-4.32L491.85,905.34z"/>
	<path fill="#605599" d="M499.71,905.03v3.99h-1.26v-9.95h3.23c0.45,0.01,0.87,0.08,1.27,0.21c0.4,0.13,0.75,0.32,1.05,0.57
		c0.3,0.25,0.54,0.56,0.71,0.93s0.26,0.79,0.26,1.27s-0.09,0.9-0.26,1.27c-0.18,0.37-0.41,0.68-0.71,0.93
		c-0.3,0.25-0.65,0.44-1.05,0.57c-0.4,0.13-0.82,0.2-1.27,0.21H499.71z M499.71,903.99h1.96c0.29,0,0.56-0.05,0.81-0.14
		s0.46-0.21,0.64-0.38s0.32-0.36,0.43-0.6c0.1-0.23,0.15-0.5,0.15-0.8s-0.05-0.57-0.15-0.81c-0.1-0.24-0.24-0.45-0.42-0.62
		c-0.18-0.17-0.39-0.3-0.64-0.39c-0.25-0.09-0.52-0.14-0.81-0.14h-1.96V903.99z"/>
	<path fill="#605599" d="M509.84,904.96h-1.99v4.06h-1.26v-9.95h2.92c0.46,0.01,0.9,0.08,1.31,0.2s0.77,0.31,1.08,0.55
		s0.55,0.55,0.72,0.93c0.18,0.37,0.26,0.81,0.26,1.31c0,0.32-0.05,0.62-0.14,0.89c-0.09,0.27-0.22,0.51-0.39,0.73
		s-0.36,0.41-0.59,0.58c-0.23,0.17-0.48,0.31-0.75,0.43l2.11,4.25l-0.01,0.08h-1.33L509.84,904.96z M507.85,903.92h1.7
		c0.28,0,0.55-0.05,0.8-0.13c0.25-0.08,0.47-0.21,0.66-0.37c0.19-0.16,0.34-0.35,0.45-0.58c0.11-0.23,0.16-0.5,0.16-0.8
		c0-0.32-0.05-0.6-0.16-0.84s-0.25-0.44-0.44-0.6c-0.19-0.16-0.41-0.28-0.67-0.37s-0.54-0.13-0.84-0.13h-1.66V903.92z"/>
</g>
<g>
	<rect x="453.29" y="170.66" fill="none" width="60.47" height="11.88"/>
	<path fill="#605599" d="M495.55,178.65c0-0.31-0.07-0.56-0.21-0.77s-0.32-0.39-0.54-0.53s-0.46-0.26-0.72-0.36
		s-0.51-0.18-0.76-0.26c-0.35-0.11-0.71-0.25-1.07-0.41s-0.69-0.36-0.99-0.59s-0.54-0.51-0.73-0.82s-0.28-0.69-0.28-1.12
		s0.09-0.81,0.28-1.15s0.44-0.62,0.74-0.85s0.65-0.41,1.04-0.53s0.78-0.18,1.17-0.18c0.43,0,0.85,0.07,1.25,0.22s0.76,0.35,1.07,0.6
		s0.56,0.57,0.75,0.94s0.28,0.78,0.29,1.24h-1.3c-0.04-0.29-0.11-0.55-0.21-0.78s-0.24-0.44-0.42-0.6s-0.38-0.3-0.62-0.39
		s-0.51-0.14-0.81-0.14c-0.24,0-0.48,0.03-0.71,0.1s-0.44,0.17-0.62,0.31s-0.32,0.31-0.43,0.51s-0.16,0.43-0.16,0.7
		c0,0.29,0.08,0.53,0.22,0.73s0.32,0.37,0.54,0.5s0.45,0.25,0.7,0.34s0.49,0.17,0.71,0.24c0.25,0.08,0.49,0.17,0.75,0.26
		s0.49,0.21,0.72,0.34s0.45,0.27,0.65,0.43s0.38,0.34,0.53,0.54s0.27,0.43,0.35,0.67s0.13,0.51,0.13,0.81c0,0.45-0.1,0.84-0.3,1.17
		s-0.45,0.61-0.77,0.83s-0.67,0.39-1.07,0.5s-0.79,0.17-1.19,0.17c-0.44,0-0.88-0.07-1.3-0.21s-0.8-0.33-1.14-0.59
		s-0.61-0.57-0.82-0.94s-0.32-0.79-0.33-1.27h1.29c0.04,0.31,0.13,0.58,0.25,0.82s0.29,0.44,0.49,0.61s0.43,0.29,0.69,0.38
		s0.55,0.13,0.86,0.13c0.25,0,0.49-0.03,0.73-0.09s0.45-0.16,0.64-0.29s0.34-0.29,0.46-0.49S495.55,178.92,495.55,178.65z"/>
	<path fill="#605599" d="M504.08,176.56h-4.16v3.53h4.85v1.07h-6.11v-9.95h6.05v1.08h-4.79v3.2h4.16V176.56z"/>
	<path fill="#605599" d="M507.93,177.17v3.99h-1.26v-9.95h3.23c0.45,0.01,0.87,0.08,1.27,0.21s0.75,0.32,1.05,0.57
		s0.54,0.56,0.71,0.93s0.26,0.79,0.26,1.27s-0.09,0.9-0.26,1.27s-0.41,0.68-0.71,0.93s-0.65,0.44-1.05,0.57s-0.82,0.2-1.27,0.21
		H507.93z M507.93,176.13h1.96c0.29,0,0.56-0.05,0.81-0.14s0.46-0.22,0.64-0.38s0.32-0.36,0.43-0.6s0.15-0.5,0.15-0.8
		s-0.05-0.57-0.15-0.81s-0.24-0.45-0.42-0.62s-0.39-0.3-0.64-0.39s-0.52-0.14-0.81-0.14h-1.96V176.13z"/>
</g>
<g>
	<rect x="685.62" y="170.66" fill="none" width="60.47" height="11.88"/>
	<path fill="#605599" d="M693.29,176.76c0,0.36-0.04,0.71-0.09,1.08c-0.06,0.36-0.14,0.71-0.26,1.05c-0.12,0.34-0.27,0.65-0.46,0.94
		s-0.4,0.55-0.66,0.77c-0.26,0.22-0.55,0.39-0.88,0.52c-0.33,0.13-0.7,0.19-1.11,0.19s-0.78-0.06-1.11-0.19
		c-0.33-0.13-0.62-0.3-0.88-0.52c-0.26-0.22-0.48-0.48-0.66-0.77c-0.19-0.29-0.34-0.61-0.46-0.95c-0.12-0.34-0.21-0.69-0.27-1.05
		c-0.06-0.36-0.09-0.72-0.1-1.07v-1.13c0-0.36,0.04-0.71,0.09-1.08c0.06-0.36,0.15-0.71,0.27-1.05c0.12-0.34,0.27-0.65,0.46-0.95
		s0.4-0.55,0.66-0.77c0.25-0.22,0.55-0.39,0.88-0.52c0.33-0.13,0.7-0.19,1.11-0.19s0.78,0.06,1.11,0.19
		c0.33,0.13,0.63,0.3,0.88,0.52c0.25,0.22,0.47,0.48,0.66,0.77s0.34,0.61,0.46,0.95c0.12,0.34,0.21,0.69,0.27,1.05
		c0.06,0.36,0.09,0.72,0.09,1.08V176.76z M692.04,175.61c0-0.24-0.02-0.48-0.05-0.74s-0.07-0.51-0.14-0.77
		c-0.07-0.25-0.15-0.49-0.26-0.72s-0.25-0.43-0.41-0.61s-0.36-0.31-0.58-0.42c-0.22-0.1-0.48-0.15-0.78-0.15
		c-0.29,0-0.55,0.05-0.77,0.16c-0.22,0.1-0.42,0.25-0.58,0.42s-0.3,0.38-0.41,0.61s-0.2,0.47-0.26,0.72
		c-0.07,0.25-0.11,0.51-0.14,0.77c-0.03,0.26-0.05,0.5-0.05,0.73v1.15c0,0.23,0.02,0.48,0.05,0.74c0.03,0.26,0.08,0.52,0.15,0.77
		s0.16,0.5,0.27,0.73s0.25,0.44,0.41,0.61s0.36,0.32,0.58,0.42c0.22,0.1,0.48,0.16,0.78,0.16c0.3,0,0.56-0.05,0.78-0.16
		s0.42-0.25,0.58-0.42c0.16-0.18,0.3-0.38,0.4-0.61c0.11-0.23,0.19-0.47,0.26-0.72c0.07-0.25,0.11-0.51,0.14-0.77
		c0.03-0.26,0.04-0.51,0.04-0.75V175.61z"/>
	<path fill="#605599" d="M701.64,178.17c-0.06,0.46-0.18,0.88-0.36,1.27s-0.41,0.72-0.69,0.99c-0.29,0.28-0.62,0.49-1.01,0.64
		s-0.82,0.23-1.3,0.23c-0.41,0-0.78-0.06-1.12-0.17s-0.63-0.28-0.9-0.48c-0.26-0.21-0.49-0.45-0.68-0.72
		c-0.19-0.28-0.35-0.58-0.47-0.91c-0.13-0.33-0.22-0.67-0.28-1.03s-0.09-0.72-0.1-1.09v-1.39c0-0.37,0.04-0.73,0.1-1.09
		s0.15-0.7,0.28-1.03c0.12-0.33,0.28-0.63,0.47-0.91c0.19-0.28,0.41-0.52,0.68-0.73c0.26-0.21,0.56-0.37,0.89-0.48
		c0.33-0.12,0.71-0.17,1.12-0.17c0.5,0,0.94,0.08,1.33,0.23c0.39,0.15,0.73,0.37,1.01,0.65c0.28,0.28,0.51,0.62,0.68,1.01
		s0.28,0.82,0.34,1.3h-1.26c-0.04-0.3-0.11-0.58-0.21-0.84c-0.1-0.26-0.23-0.49-0.4-0.68c-0.17-0.2-0.38-0.35-0.62-0.46
		c-0.24-0.11-0.53-0.17-0.87-0.17c-0.3,0-0.57,0.05-0.8,0.15c-0.23,0.1-0.43,0.23-0.59,0.4c-0.17,0.17-0.31,0.36-0.42,0.59
		c-0.11,0.22-0.2,0.46-0.27,0.71s-0.12,0.51-0.15,0.77c-0.03,0.26-0.04,0.52-0.04,0.76v1.4c0,0.25,0.01,0.5,0.04,0.76
		c0.03,0.26,0.08,0.52,0.15,0.77s0.16,0.49,0.27,0.71s0.25,0.42,0.42,0.59c0.17,0.17,0.37,0.31,0.59,0.4c0.23,0.1,0.5,0.15,0.8,0.15
		c0.33,0,0.62-0.05,0.87-0.16c0.24-0.1,0.45-0.25,0.62-0.44c0.17-0.19,0.3-0.41,0.4-0.67c0.1-0.26,0.17-0.54,0.21-0.84H701.64z"/>
	<path fill="#605599" d="M710.09,172.29h-3.08v8.87h-1.23v-8.87h-3.08v-1.08h7.38V172.29z"/>
</g>
</svg>
